PathFileType	4	(X/Y/Z)	C:/Users/beibeiliu/ov580/test_trc/User2\sequence.12_training_dense_left.trc
DataRate	CameraRate	NumFrames	NumMarkers	Units	OrigDataRate	OrigDataStartFrame	OrigNumFrames
120	120	7	19	mm	120	335	446
Frame#	Time	ThumbCMC			ThumbMCP			ThumbIP			ThumbTip			IndexMCP			IndexPIP			IndexTip			MiddleMCP			MiddlePIP			MiddleTip			RingMCP			RingPIP			RingTip			PinkyMCP			PinkyPIP			PinkyTip			BackHand1			BackHand2			BackHand3	
		X0	Y0	Z0	X1	Y1	Z1	X2	Y2	Z2	X3	Y3	Z3	X4	Y4	Z4	X5	Y5	Z5	X6	Y6	Z6	X7	Y7	Z7	X8	Y8	Z8	X9	Y9	Z9	X10	Y10	Z10	X11	Y11	Z11	X12	Y12	Z12	X13	Y13	Z13	X14	Y14	Z14	X15	Y15	Z15	X16	Y16	Z16	X17	Y17	Z17	X18	Y18	Z18	
334	2.78333	-241.521	-32.5361	107.052	-248.555	-13.101	75.4084	-239.447	-6.16313	40.5282	-221.593	-4.61916	22.652	-227.028	-69.3778	33.8632	-222.034	-51.4402	8.36477	-207.151	-17.838	5.97803	-210.116	-90.6763	38.8409	-205.823	-95.7521	5.2446	-201.267	-92.5196	-29.459	-190.378	-95.3327	44.9043	-182.245	-103.539	17.6487	-183.818	-104.138	-8.77759	-165.034	-83.5658	67.1112	-154.57	-98.8405	44.844	-149.587	-112.702	24.2777	-190.148	-79.2503	102.051	-193.691	-73.9778	133.337	-227.942	-71.2714	112.008	
335	2.79167	-247.768	-34.188	106.551	-248.933	-18.0678	77.3104	-243.38	-11.0556	42.5761	-223.989	-14.0963	21.7485	-235.646	-74.4162	37.597	-228.593	-57.6299	9.29923	-213.449	-28.2727	5.16917	-216.414	-97.3318	37.2044	-215.089	-102.325	4.69996	-206.356	-101.091	-26.4826	-194.827	-98.906	49.5635	-189.02	-108.841	22.352	-191.405	-112.033	-10.7173	-165.525	-89.3194	66.2179	-162.102	-104.545	41.7127	-156.551	-116.969	24.3575	-193.162	-83.3545	101.669	-194.355	-75.568	136.118	-223.667	-74.1447	114.152	
336	2.8	-243.587	-36.626	110.648	-253.099	-19.1223	79.8632	-245.387	-16.4694	42.0946	-227.765	-19.9742	19.5727	-241.078	-78.2264	38.935	-234.805	-64.072	12.6823	-221.718	-30.5186	5.36156	-218.899	-102.569	42.0802	-221.275	-106.602	7.91795	-216.405	-107.899	-22.635	-193.878	-103.199	50.5665	-196.363	-113.095	20.218	-199.541	-116.464	-9.24341	-171.954	-94.9251	65.2585	-164.545	-110.928	41.9425	-164.78	-122.256	23.6776	-194.688	-84.0419	105.804	-195.081	-75.8072	137.016	-226.264	-77.8871	115.948	
337	2.80833	-247.992	-36.3438	111.003	-257.295	-19.9929	78.2211	-250.983	-17.238	47.1759	-233.536	-23.5462	19.3657	-245.679	-82.6866	42.4932	-238.383	-67.4836	14.7678	-227.835	-35.7315	6.55677	-223.658	-107.04	45.1636	-228.096	-111.953	13.7347	-223.896	-112.543	-18.9246	-202.723	-105.323	54.2893	-200.89	-117.829	22.0719	-203.717	-120.942	-4.45443	-173.198	-96.6304	67.3369	-167.843	-113.457	44.172	-166.981	-126.669	25.2165	-192.746	-87.6189	104.171	-193.863	-79.4025	134.784	-228.574	-77.1606	121.252	
338	2.81667	-247.891	-36.6249	114.461	-257.096	-23.8953	80.2671	-255.642	-18.9744	48.3718	-239.941	-27.1902	20.6424	-249.722	-85.4183	46.3554	-245.353	-73.1288	18.1273	-233.479	-40.1414	7.94472	-232.085	-108.169	50.7414	-232.441	-116.019	14.5697	-232.173	-117.115	-15.2552	-207.342	-111.933	52.0455	-207.057	-121.813	23.8191	-213.41	-123.574	-4.4257	-180.078	-100.132	66.0418	-178.204	-117.388	43.1564	-172.354	-130.74	26.364	-196.005	-90.3625	107.565	-194.776	-77.2709	137.326	-231.169	-76.2644	120.328	
339	2.825	-247.829	-36.7114	114.825	-259.32	-21.6539	83.2355	-260.57	-17.9377	46.0741	-242.758	-29.7041	22.3922	-252.374	-87.9484	51.5685	-253.084	-72.1442	19.5299	-237.327	-44.0386	9.29202	-235.56	-111.119	50.676	-237.435	-118.655	16.9053	-237.267	-119.849	-13.4876	-208.067	-111.978	57.5114	-215.858	-120.945	32.0135	-220.471	-125.49	-0.707564	-184.162	-102.153	67.586	-181.695	-121.205	43.7125	-184.684	-134.938	23.715	-202.056	-88.7009	107.314	-196.568	-78.5227	137.292	-231.013	-78.7763	123.706	
340	2.83333	-246.59	-34.1797	116.157	-259.541	-19.6185	82.0671	-259.343	-17.9592	50.4761	-248.822	-26.6804	21.6401	-260.72	-84.7562	53.1473	-254.219	-74.9752	21.8691	-241.127	-47.1368	12.4446	-243.608	-111.105	54.3395	-244.612	-120.021	21.3995	-245.058	-120.445	-8.48807	-219.52	-113.54	56.4283	-220.077	-124.507	29.9065	-227.777	-125.903	3.36853	-189.601	-103.929	68.6813	-188.892	-123.321	46.3133	-188.621	-140.008	25.5551	-200.319	-90.8553	106.556	-194.815	-77.3087	135.895	-232.579	-75.774	125.966	
